# xmcd
#
# Track frame offsets: 
#        150
#        22130
#        43100
#        60237
#        90540
#        107375
#        120212
#        143542
#        164855
#        186010
#        209922
#
# Disc length: 3059 seconds
#
# Revision: 0
# Processed by: cddbd v1.4PL0 Copyright (c) Steve Scherf et al.
# Submitted via: ExactAudioCopy v0.95a3
#
DISCID=930bf10b
DTITLE=Duke Robillard - Temptation
DYEAR=1994
DGENRE=Blues
TTITLE0=Rule The World
TTITLE1=(You Got My Love) Sewed Up
TTITLE2=Live To Give
TTITLE3=The Chance Is On
TTITLE4=Life's Funny
TTITLE5=When My Love Comes Down
TTITLE6=This Dream (Still Coming True)
TTITLE7=Temptation
TTITLE8=Never Been Satisfied
TTITLE9=Born To Love You
TTITLE10=What's Wrong?
EXTD=
EXTT0=
EXTT1=
EXTT2=
EXTT3=
EXTT4=
EXTT5=
EXTT6=
EXTT7=
EXTT8=
EXTT9=
EXTT10=
PLAYORDER=
